<svg width="511" height="255" viewBox="0 0 511 255" fill="none" xmlns="http://www.w3.org/2000/svg">
<g clip-path="url(#clip0)">
<path d="M415.091 218.567C414.551 215.43 414.726 212.212 415.601 209.151C416.477 206.09 418.03 203.264 420.147 200.884C420.569 206.234 419.529 211.598 417.137 216.404L417.98 215.487C420.809 212.482 423.548 209.237 426.197 206.007C424.088 200.811 423.564 195.108 424.692 189.616C426.13 191.881 427.081 194.419 427.485 197.07C427.889 199.721 427.738 202.426 427.04 205.016C428.801 202.852 430.501 200.629 432.187 198.405C431.191 195.711 430.738 192.847 430.854 189.977C430.97 187.107 431.653 184.289 432.864 181.684C434.487 186.429 434.762 191.53 433.661 196.422C435.648 193.703 437.604 190.953 439.471 188.144C439.178 185.817 439.082 183.47 439.185 181.128C439.348 178.597 440.379 176.199 442.104 174.337C443.1 177.239 443.266 180.36 442.586 183.351C443.84 181.348 445.064 179.345 446.258 177.342C446.466 175.191 447.271 173.141 448.581 171.421C449.892 169.702 451.656 168.381 453.677 167.606C454.23 169.752 453.932 172.029 452.844 173.961C451.756 175.892 449.962 177.33 447.838 177.973C445.49 181.979 443.027 185.88 440.449 189.676C444.176 187.281 448.539 186.061 452.97 186.176C451.463 188.375 449.335 190.077 446.855 191.065C444.376 192.052 441.659 192.28 439.049 191.72C435.809 196.397 432.412 200.944 428.861 205.361C433.222 203.33 438.056 202.525 442.842 203.032C440.691 204.698 438.225 205.91 435.591 206.597C432.958 207.284 430.213 207.431 427.521 207.029C425.46 209.538 423.338 212.002 421.186 214.421C425.699 212.525 430.673 212.003 435.482 212.918C433.248 214.373 430.735 215.348 428.103 215.783C425.471 216.217 422.777 216.101 420.192 215.442L419.259 216.494C410.832 225.703 399.259 236.776 384.48 240.863L384.029 239.24C396.745 235.845 407.129 226.86 415.091 218.567Z" fill="url(#paint0_linear)"/>
<path d="M461.623 227.221C459.035 229.309 455.814 230.496 453.241 232.599C447.492 237.302 446.137 245.52 441.608 251.394C440.567 252.734 439.369 253.944 438.041 255H397.483C396.995 253.594 396.995 252.064 397.483 250.658C398.717 245.65 400.147 240.697 401.772 235.8C402.765 232.795 404.014 229.655 406.708 228.062C408.62 226.951 410.937 226.83 412.984 226.034C418.101 224.051 420.674 218.372 425.023 214.992C432.232 209.328 443.082 210.89 450.773 205.977C453.99 203.655 456.784 200.799 459.035 197.534C461.294 194.27 464.105 191.423 467.342 189.12C471.104 186.777 481.398 185.875 487.012 188.369C484.642 188.361 482.321 189.04 480.33 190.322C477.32 192.149 474.922 194.826 473.437 198.015C471.104 202.807 470.427 208.201 469.088 213.399C467.748 218.597 465.717 223.856 461.623 227.221Z" fill="url(#paint1_linear)"/>
<g style="mix-blend-mode:multiply" opacity="0.4">
<path d="M401.501 248.284C401.543 248.123 401.648 247.986 401.792 247.901C401.936 247.817 402.107 247.793 402.269 247.834C408.469 249.336 414.383 244.604 416.626 242.47C418.131 241.073 419.53 239.465 420.885 237.963C421.863 236.881 422.856 235.8 423.894 234.748L426.197 221.076C426.208 220.994 426.235 220.915 426.278 220.843C426.321 220.772 426.378 220.711 426.446 220.663C426.514 220.615 426.591 220.581 426.672 220.565C426.754 220.548 426.838 220.548 426.919 220.565C427.002 220.576 427.082 220.604 427.154 220.646C427.226 220.689 427.288 220.746 427.338 220.813C427.387 220.881 427.422 220.957 427.441 221.039C427.459 221.12 427.461 221.204 427.446 221.287L425.429 233.306C426.404 232.381 427.44 231.522 428.53 230.737C430.528 229.404 432.655 228.276 434.881 227.371C434.954 227.326 435.036 227.295 435.121 227.281C436.506 226.695 437.905 226.154 439.29 225.628C442.178 224.614 444.985 223.383 447.688 221.948V212.933C447.688 212.766 447.754 212.605 447.873 212.487C447.991 212.369 448.152 212.302 448.319 212.302C448.487 212.302 448.648 212.369 448.766 212.487C448.885 212.605 448.952 212.766 448.952 212.933V221.211C450.259 220.36 451.457 219.35 452.518 218.207C455.302 215.202 456.883 211.311 458.418 207.51C458.869 206.398 459.306 205.286 459.787 204.204C462.632 197.684 466.334 193.688 470.788 192.441C470.871 192.404 470.96 192.386 471.05 192.387C471.14 192.388 471.229 192.409 471.311 192.447C471.393 192.485 471.465 192.54 471.524 192.609C471.582 192.677 471.625 192.757 471.65 192.844C471.675 192.93 471.681 193.021 471.668 193.11C471.655 193.199 471.623 193.285 471.574 193.36C471.525 193.436 471.461 193.5 471.385 193.549C471.309 193.598 471.224 193.63 471.134 193.643C467.071 194.83 463.61 198.54 460.946 204.7C460.479 205.782 460.028 206.879 459.592 207.975L459.275 208.757L463.068 207.104C463.224 207.042 463.398 207.042 463.555 207.103C463.711 207.164 463.839 207.283 463.911 207.435C463.976 207.588 463.978 207.761 463.916 207.916C463.854 208.071 463.733 208.195 463.58 208.261L458.583 210.439C457.391 213.596 455.654 216.519 453.451 219.078C449.779 223.014 444.678 224.937 439.726 226.815L437.725 227.582L447.748 228.919C447.913 228.941 448.063 229.028 448.164 229.16C448.266 229.293 448.311 229.46 448.29 229.625C448.268 229.778 448.192 229.918 448.076 230.019C447.961 230.121 447.812 230.179 447.657 230.181H447.567L435.377 228.558C433.229 229.42 431.176 230.503 429.252 231.788C426.53 233.862 424.047 236.23 421.848 238.849C420.463 240.352 419.034 241.944 417.514 243.357C417.077 243.777 416.641 244.153 416.204 244.513L430.968 243.372C431.051 243.365 431.134 243.374 431.214 243.4C431.293 243.425 431.367 243.466 431.43 243.519C431.494 243.573 431.546 243.639 431.584 243.713C431.622 243.787 431.645 243.867 431.652 243.95C431.659 244.033 431.65 244.116 431.624 244.196C431.599 244.275 431.558 244.348 431.505 244.412C431.451 244.475 431.385 244.527 431.311 244.565C431.237 244.604 431.156 244.627 431.073 244.634L414.383 245.926C411.591 248.019 408.226 249.214 404.737 249.351C403.808 249.356 402.883 249.245 401.983 249.021C401.822 248.985 401.682 248.887 401.592 248.75C401.502 248.613 401.47 248.446 401.501 248.284Z" fill="#825BDA"/>
</g>
<path d="M463.053 238.594C462.391 241.193 460.043 243.011 457.801 244.468C455.558 245.926 453.06 247.353 451.781 249.727C451.034 251.391 450.6 253.179 450.502 255H421.592C421.975 254.455 422.414 253.952 422.901 253.498C424.813 251.983 426.924 250.739 429.177 249.802C431.432 248.865 433.421 247.39 434.971 245.505C436.686 243.086 437.273 239.616 439.922 238.294C441.698 237.422 443.91 237.828 445.656 236.896C447.657 235.83 448.425 233.411 449.132 231.262C449.84 229.114 451.028 226.755 453.241 226.229C455.453 225.704 458.267 227.627 460.479 226.575C462.692 225.523 462.782 222.548 464.437 220.896C464.863 220.466 465.386 220.145 465.963 219.959C466.539 219.774 467.151 219.729 467.748 219.829C468.343 219.949 468.891 220.234 469.33 220.651C469.77 221.069 470.082 221.601 470.231 222.188C470.623 224.006 469.238 225.719 467.763 226.845C466.148 227.765 464.767 229.045 463.73 230.586C462.541 233.005 463.715 235.98 463.053 238.594Z" fill="url(#paint2_linear)"/>
<g style="mix-blend-mode:multiply" opacity="0.4">
<g style="mix-blend-mode:multiply" opacity="0.4">
<path d="M446.152 244.453C445.565 244.859 444.948 245.25 444.331 245.64C442.853 246.513 441.458 247.519 440.163 248.645C438.407 250.447 436.889 252.467 435.648 254.654C435.598 254.748 435.543 254.838 435.482 254.925H434.474L434.941 254.204C436.944 250.255 440.09 247 443.97 244.859L445.776 243.687C451.224 239.976 455.513 234.808 459.667 229.82C459.705 229.78 459.75 229.749 459.801 229.728C459.851 229.706 459.905 229.695 459.96 229.695C460.015 229.695 460.069 229.706 460.12 229.728C460.17 229.749 460.216 229.78 460.254 229.82C460.331 229.901 460.374 230.009 460.374 230.121C460.374 230.232 460.331 230.34 460.254 230.421C456.07 235.469 451.736 240.622 446.152 244.453Z" fill="#825BDA"/>
</g>
</g>
<path d="M130.252 53.1244H402.886C404.218 53.1244 405.537 53.3863 406.767 53.8952C407.998 54.4041 409.116 55.15 410.058 56.0902C411 57.0305 411.747 58.1468 412.257 59.3754C412.766 60.6039 413.029 61.9207 413.029 63.2505V241.749H120.109V63.2505C120.109 61.9207 120.371 60.6039 120.881 59.3754C121.391 58.1468 122.138 57.0305 123.08 56.0902C124.021 55.15 125.14 54.4041 126.37 53.8952C127.601 53.3863 128.92 53.1244 130.252 53.1244Z" fill="#0F2363"/>
<path d="M401.426 230.181V64.7078L131.697 64.7078V230.181L401.426 230.181Z" fill="url(#paint3_linear)"/>
<path d="M131.697 145.04V104.386L171.442 64.7078H212.165L131.697 145.04ZM362.117 64.7078H285.516L131.697 218.252V230.105H202.519C257.69 175.058 306.991 119.86 362.117 64.7078ZM401.426 197.759V153.093L324.253 230.105H368.979C379.825 219.378 390.641 208.596 401.426 197.759ZM401.426 112.409V86.9881L263.8 230.105H289.504C328.632 190.803 362.072 151.546 401.426 112.409Z" fill="url(#paint4_linear)"/>
<path d="M422.149 255H110.974C109.231 255 107.505 254.657 105.894 253.991C104.284 253.325 102.821 252.349 101.588 251.119C100.355 249.888 99.3777 248.428 98.7107 246.82C98.0436 245.212 97.7003 243.489 97.7003 241.749H435.422C435.422 245.263 434.024 248.634 431.534 251.119C429.045 253.604 425.669 255 422.149 255Z" fill="#2140A5"/>
<g style="mix-blend-mode:multiply" opacity="0.2">
<path d="M245.229 245.009H293.688C294.554 245.009 295.384 244.666 295.997 244.054C296.609 243.443 296.953 242.614 296.953 241.749H241.963C241.963 242.614 242.307 243.443 242.92 244.054C243.532 244.666 244.363 245.009 245.229 245.009Z" fill="#8258D7"/>
</g>
<path d="M61.7925 223.69C62.2556 220.995 62.1051 218.23 61.3522 215.601C60.5994 212.971 59.2634 210.545 57.4433 208.501C57.0882 213.101 57.9878 217.712 60.0468 221.842L59.3846 221.091C56.9467 218.427 54.5939 215.708 52.3265 212.933C54.1389 208.471 54.5943 203.575 53.6358 198.856C52.3938 200.797 51.5681 202.974 51.2107 205.249C50.8532 207.525 50.9718 209.849 51.559 212.077C50.054 210.204 48.5792 208.306 47.1345 206.383C47.9942 204.07 48.3864 201.609 48.2882 199.144C48.1901 196.679 47.6036 194.258 46.5626 192.02C45.1603 196.096 44.9259 200.483 45.8854 204.685C44.1598 202.361 42.4893 199.988 40.874 197.564C41.1268 195.571 41.2123 193.561 41.1298 191.554C40.9853 189.381 40.0982 187.323 38.6166 185.725C37.7535 188.23 37.6127 190.926 38.2102 193.507C37.1267 191.795 36.0733 190.082 35.0499 188.354C34.8699 186.507 34.1773 184.747 33.0501 183.271C31.9228 181.795 30.4056 180.663 28.669 180.001C28.2035 181.844 28.4657 183.795 29.4014 185.451C30.337 187.107 31.8744 188.34 33.6954 188.895C35.712 192.305 37.819 195.671 40.0463 198.961C36.8429 196.904 33.0935 195.857 29.286 195.956C30.5842 197.862 32.4259 199.336 34.5725 200.185C36.7191 201.034 39.0717 201.22 41.3254 200.719C44.0945 204.725 47.0091 208.636 50.0691 212.452C46.3173 210.69 42.1518 209.994 38.0296 210.439C39.8772 211.872 41.9969 212.916 44.2604 213.507C46.5238 214.099 48.8839 214.225 51.1978 213.88C52.9586 216.043 54.7795 218.146 56.6457 220.22C52.7551 218.62 48.4797 218.197 44.3504 219.003C46.2698 220.254 48.4287 221.094 50.6903 221.469C52.9519 221.844 55.2668 221.746 57.4884 221.181C57.7593 221.467 58.0152 221.782 58.2861 222.083C65.5398 229.985 75.4874 239.51 88.174 243.026L88.5653 241.629C77.5492 238.549 68.6249 230.827 61.7925 223.69Z" fill="url(#paint5_linear)"/>
<path d="M21.7613 231.127C23.9886 232.93 26.7577 233.937 28.9699 235.754C33.8911 239.796 34.9897 246.857 38.9627 251.905C39.8349 253.056 40.8458 254.096 41.9726 255H76.8118C77.2485 253.791 77.2485 252.468 76.8118 251.259C75.7584 246.962 74.5293 242.71 73.1247 238.504C72.2819 235.95 71.2134 233.215 68.8808 231.863C67.2555 230.902 65.2539 230.797 63.4931 230.105C59.0987 228.408 56.8865 223.525 53.1843 220.625C46.984 215.758 37.6835 217.095 31.0467 212.843C28.2934 210.838 25.8974 208.385 23.9586 205.587C22.0194 202.782 19.6054 200.337 16.8251 198.36C13.5745 196.332 4.78568 195.566 -0.0752563 197.714C1.95713 197.706 3.94843 198.285 5.65853 199.382C8.24213 200.952 10.3005 203.253 11.5729 205.992C13.5895 210.124 14.2216 214.751 15.3202 219.213C16.4188 223.675 18.2398 228.243 21.7613 231.127Z" fill="url(#paint6_linear)"/>
<g style="mix-blend-mode:multiply" opacity="0.4">
<path d="M73.4557 249.231C73.4399 249.162 73.4105 249.098 73.3691 249.04C73.3278 248.983 73.2753 248.935 73.215 248.899C73.1546 248.862 73.0876 248.838 73.0178 248.828C72.948 248.818 72.8768 248.822 72.8086 248.84C67.4812 250.162 62.4095 246.061 60.4682 244.243C59.189 243.041 57.985 241.704 56.8112 240.412C55.9684 239.48 55.1257 238.564 54.2378 237.662L52.2663 225.899C52.2236 225.774 52.138 225.669 52.0248 225.602C51.9116 225.534 51.7781 225.509 51.6481 225.531C51.5181 225.552 51.3999 225.619 51.3147 225.72C51.2295 225.82 51.1827 225.948 51.1827 226.079L52.9134 236.385C52.077 235.589 51.187 234.852 50.2497 234.177C48.5327 233.031 46.7021 232.064 44.7868 231.292C44.7295 231.248 44.6625 231.217 44.5911 231.202C43.4022 230.706 42.1983 230.241 41.0094 229.79C38.5266 228.925 36.1162 227.865 33.8008 226.62V218.838C33.8008 218.694 33.7437 218.557 33.6421 218.455C33.5405 218.354 33.4027 218.297 33.259 218.297C33.1153 218.297 32.9775 218.354 32.8759 218.455C32.7743 218.557 32.7173 218.694 32.7173 218.838V225.959C31.6163 225.235 30.6059 224.383 29.7074 223.42C27.4682 220.685 25.7493 217.563 24.6357 214.21C24.2444 213.264 23.8682 212.302 23.4619 211.371C21.0089 205.767 17.8334 202.356 14.0109 201.275C13.9428 201.252 13.8707 201.243 13.7991 201.249C13.7274 201.255 13.6577 201.275 13.5942 201.309C13.5308 201.343 13.4749 201.389 13.4301 201.445C13.3853 201.501 13.3525 201.566 13.3337 201.635C13.3131 201.704 13.3065 201.777 13.3143 201.848C13.3222 201.92 13.3442 201.989 13.3793 202.052C13.4143 202.115 13.4617 202.171 13.5184 202.215C13.5752 202.26 13.6404 202.292 13.71 202.311C17.2014 203.318 20.151 206.518 22.4686 211.806C22.8599 212.738 23.2512 213.669 23.6274 214.616L23.8983 215.292L20.6326 213.88C20.5027 213.824 20.356 213.82 20.2238 213.871C20.0916 213.922 19.9845 214.022 19.9253 214.15C19.8952 214.215 19.8782 214.286 19.8756 214.357C19.8729 214.429 19.8844 214.5 19.9096 214.567C19.9348 214.634 19.9732 214.696 20.0223 214.748C20.0715 214.8 20.1307 214.842 20.1962 214.871L24.5003 216.734C25.5144 219.451 27.0078 221.965 28.9097 224.156C32.0551 227.536 36.4344 229.204 40.6934 230.812L42.409 231.473L33.8158 232.615C33.7444 232.624 33.6755 232.647 33.6132 232.683C33.5509 232.719 33.4965 232.767 33.453 232.825C33.4096 232.882 33.3781 232.947 33.3603 233.017C33.3424 233.087 33.3387 233.159 33.3493 233.23C33.3642 233.359 33.4262 233.478 33.5234 233.564C33.6206 233.65 33.7461 233.697 33.876 233.696L44.4105 232.299C46.2544 233.038 48.0149 233.97 49.6627 235.078C51.9998 236.842 54.1348 238.857 56.0287 241.088C57.2176 242.395 58.4365 243.747 59.7458 244.979C60.122 245.34 60.4983 245.655 60.8745 245.971L48.1879 244.994C48.0442 244.982 47.9017 245.028 47.7916 245.121C47.6815 245.214 47.613 245.346 47.601 245.49C47.589 245.633 47.6346 245.776 47.7277 245.886C47.8209 245.995 47.954 246.064 48.0976 246.076L62.4397 247.188C64.8333 249.008 67.726 250.056 70.7318 250.192C71.5283 250.197 72.3221 250.101 73.0946 249.907C73.2301 249.862 73.3433 249.767 73.4105 249.641C73.4778 249.515 73.4939 249.368 73.4557 249.231Z" fill="#825BDA"/>
</g>
<path d="M20.5874 240.908C21.1442 243.146 23.1458 244.694 25.1022 245.941C27.1817 246.976 28.9594 248.528 30.2642 250.448C30.9089 251.869 31.2815 253.397 31.3628 254.955H56.2092C55.882 254.488 55.5034 254.06 55.0805 253.678C53.4451 252.37 51.6309 251.303 49.6929 250.508C47.7503 249.709 46.0381 248.439 44.7115 246.812C43.2066 244.739 42.74 241.749 40.4525 240.622C38.9476 239.871 37.0213 240.217 35.5164 239.405C34.0115 238.594 33.1537 236.4 32.5065 234.568C31.8594 232.735 30.8812 230.691 28.985 230.256C27.0887 229.82 24.6658 231.458 22.7696 230.541C20.8734 229.625 20.7831 227.086 19.3684 225.658C18.9993 225.29 18.5468 225.016 18.0491 224.859C17.5514 224.702 17.0232 224.667 16.5091 224.757C15.9982 224.857 15.5268 225.102 15.1508 225.461C14.7747 225.82 14.5096 226.28 14.3871 226.785C14.3347 227.58 14.5057 228.374 14.8805 229.077C15.2554 229.781 15.8194 230.366 16.5091 230.767C17.8901 231.565 19.0732 232.664 19.9704 233.982C21.0239 236.115 20.0155 238.654 20.5874 240.908Z" fill="url(#paint7_linear)"/>
<g style="mix-blend-mode:multiply" opacity="0.4">
<g style="mix-blend-mode:multiply" opacity="0.4">
<path d="M35.065 245.941L36.5699 246.962C37.8422 247.717 39.0456 248.582 40.1666 249.546C41.7047 251.106 43.0259 252.864 44.0946 254.775L44.245 255H45.1179L44.7116 254.384C43.6045 252.422 42.2378 250.618 40.6482 249.021C39.5051 248.017 38.2707 247.121 36.9611 246.346L35.4562 245.34C30.7759 242.155 27.0888 237.723 23.5372 233.426C23.47 233.37 23.3858 233.34 23.2987 233.34C23.2116 233.34 23.1272 233.369 23.0598 233.424C22.9923 233.479 22.946 233.556 22.9288 233.641C22.9116 233.726 22.9244 233.815 22.9653 233.892C26.5771 238.218 30.2944 242.696 35.065 245.941Z" fill="#825BDA"/>
</g>
</g>
<path d="M133.623 100.224H71.9057C65.963 100.224 61.1454 105.034 61.1454 110.966V244.273C61.1454 250.206 65.963 255.015 71.9057 255.015H133.623C139.566 255.015 144.383 250.206 144.383 244.273V110.966C144.383 105.034 139.566 100.224 133.623 100.224Z" fill="#E0F0FF"/>
<path d="M133.623 105.302H121.388C121.388 106.322 120.982 107.301 120.259 108.022C119.537 108.743 118.557 109.148 117.535 109.148H87.9784C86.9552 109.148 85.9738 108.744 85.2489 108.023C84.524 107.302 84.1147 106.324 84.1107 105.302H71.8907C71.1463 105.3 70.4089 105.445 69.7206 105.728C69.0323 106.011 68.4068 106.427 67.8798 106.952C67.3527 107.476 66.9345 108.1 66.6492 108.786C66.3639 109.472 66.217 110.208 66.217 110.951V244.273C66.217 245.775 66.8148 247.216 67.8788 248.278C68.9429 249.34 70.3859 249.937 71.8907 249.937H133.593C134.337 249.937 135.074 249.79 135.762 249.506C136.449 249.221 137.074 248.803 137.599 248.277C138.125 247.751 138.542 247.126 138.825 246.439C139.109 245.752 139.253 245.016 139.251 244.273V110.951C139.251 109.458 138.659 108.026 137.605 106.967C136.55 105.909 135.119 105.31 133.623 105.302Z" fill="#6DA6F0"/>
<g style="mix-blend-mode:color-dodge">
<path d="M66.217 162.198V133.322L90.4314 109.148H117.52C118.542 109.148 119.522 108.743 120.244 108.022C120.967 107.301 121.373 106.322 121.373 105.302H123.209L66.217 162.198ZM139.282 142.036V110.951C139.271 110.364 139.175 109.782 138.996 109.223L66.217 181.879V215.082C90.5367 190.673 114.892 166.324 139.282 142.036ZM68.3089 248.63L139.282 177.777V173.015L66.4428 245.73C66.7508 246.866 67.4025 247.878 68.3089 248.63ZM139.282 210.049V182.69L71.9358 249.937H99.4912C112.735 236.616 125.998 223.32 139.282 210.049Z" fill="#1D1837"/>
</g>
<g style="mix-blend-mode:multiply" opacity="0.2">
<path d="M315.885 53.1244H151.577V230.166H315.885V53.1244Z" fill="#8258D7"/>
</g>
<path d="M319.309 4.73254H155V230.166H319.309V4.73254Z" fill="#CDDBFF"/>
<path opacity="0.8" d="M304.328 174H171.939V189.835H304.328V174Z" fill="#4A74DE"/>
<path opacity="0.8" d="M304.328 151H171.939V166.835H304.328V151Z" fill="#0F2363"/>
<path opacity="0.8" d="M304.328 128H171.939V143.835H304.328V128Z" fill="#2140A5"/>
<g opacity="0.2">
<g style="mix-blend-mode:multiply" opacity="0.2">
<path d="M173.519 201.524H212.888C213.109 201.545 213.333 201.52 213.544 201.45C213.755 201.381 213.95 201.267 214.114 201.118C214.279 200.969 214.411 200.787 214.501 200.584C214.591 200.38 214.638 200.161 214.638 199.939C214.638 199.716 214.591 199.497 214.501 199.294C214.411 199.09 214.279 198.908 214.114 198.759C213.95 198.61 213.755 198.497 213.544 198.427C213.333 198.357 213.109 198.332 212.888 198.354H173.519C173.124 198.392 172.758 198.576 172.492 198.869C172.226 199.162 172.078 199.543 172.078 199.939C172.078 200.334 172.226 200.716 172.492 201.009C172.758 201.302 173.124 201.485 173.519 201.524Z" fill="#073150"/>
</g>
<g style="mix-blend-mode:multiply" opacity="0.2">
<path d="M218.787 200.547C218.878 200.734 218.989 200.91 219.118 201.073L219.359 201.268C219.451 201.32 219.547 201.365 219.645 201.404C219.735 201.447 219.832 201.477 219.931 201.494C220.041 201.508 220.152 201.508 220.262 201.494H220.563C220.667 201.478 220.768 201.447 220.864 201.404C220.957 201.365 221.048 201.319 221.135 201.268L221.376 201.073C221.449 200.995 221.515 200.909 221.571 200.818C221.631 200.733 221.681 200.642 221.722 200.547C221.768 200.452 221.798 200.351 221.812 200.247C221.827 200.147 221.827 200.046 221.812 199.946C221.827 199.842 221.827 199.735 221.812 199.631C221.798 199.531 221.768 199.435 221.722 199.345C221.681 199.246 221.63 199.15 221.571 199.06C221.515 198.973 221.449 198.893 221.376 198.819L221.135 198.624L220.864 198.474L220.563 198.384C220.296 198.325 220.018 198.335 219.755 198.411C219.492 198.487 219.253 198.627 219.058 198.819C218.99 198.893 218.929 198.974 218.877 199.06C218.818 199.15 218.768 199.246 218.727 199.345C218.681 199.435 218.651 199.531 218.637 199.631C218.629 199.736 218.629 199.841 218.637 199.946C218.629 200.046 218.629 200.147 218.637 200.247C218.669 200.355 218.72 200.456 218.787 200.547Z" fill="#073150"/>
</g>
<g style="mix-blend-mode:multiply" opacity="0.2">
<path d="M227.32 201.524H240.112C240.334 201.545 240.557 201.52 240.768 201.45C240.98 201.381 241.174 201.267 241.339 201.118C241.504 200.969 241.635 200.787 241.725 200.584C241.815 200.381 241.862 200.161 241.862 199.939C241.862 199.717 241.815 199.497 241.725 199.294C241.635 199.091 241.504 198.909 241.339 198.759C241.174 198.61 240.98 198.497 240.768 198.427C240.557 198.357 240.334 198.332 240.112 198.354H227.32C227.099 198.332 226.875 198.357 226.664 198.427C226.453 198.497 226.258 198.61 226.093 198.759C225.929 198.909 225.797 199.091 225.707 199.294C225.617 199.497 225.57 199.717 225.57 199.939C225.57 200.161 225.617 200.381 225.707 200.584C225.797 200.787 225.929 200.969 226.093 201.118C226.258 201.267 226.453 201.381 226.664 201.45C226.875 201.52 227.099 201.545 227.32 201.524Z" fill="#073150"/>
</g>
<g style="mix-blend-mode:multiply" opacity="0.2">
<path d="M245.876 201.524H292.409C292.803 201.485 293.169 201.302 293.435 201.009C293.701 200.716 293.849 200.334 293.849 199.939C293.849 199.543 293.701 199.162 293.435 198.869C293.169 198.576 292.803 198.392 292.409 198.354H245.876C245.654 198.332 245.431 198.357 245.22 198.427C245.008 198.497 244.814 198.61 244.649 198.759C244.485 198.909 244.353 199.091 244.263 199.294C244.173 199.497 244.126 199.717 244.126 199.939C244.126 200.161 244.173 200.381 244.263 200.584C244.353 200.787 244.485 200.969 244.649 201.118C244.814 201.267 245.008 201.381 245.22 201.45C245.431 201.52 245.654 201.545 245.876 201.524Z" fill="#073150"/>
</g>
<g style="mix-blend-mode:multiply" opacity="0.2">
<path d="M298.549 201.524H302.732C302.954 201.545 303.177 201.52 303.389 201.45C303.6 201.381 303.794 201.267 303.959 201.118C304.124 200.969 304.256 200.787 304.346 200.584C304.436 200.381 304.482 200.161 304.482 199.939C304.482 199.717 304.436 199.497 304.346 199.294C304.256 199.091 304.124 198.909 303.959 198.759C303.794 198.61 303.6 198.497 303.389 198.427C303.177 198.357 302.954 198.332 302.732 198.354H298.549C298.327 198.332 298.104 198.357 297.892 198.427C297.681 198.497 297.487 198.61 297.322 198.759C297.157 198.909 297.026 199.091 296.935 199.294C296.845 199.497 296.799 199.717 296.799 199.939C296.799 200.161 296.845 200.381 296.935 200.584C297.026 200.787 297.157 200.969 297.322 201.118C297.487 201.267 297.681 201.381 297.892 201.45C298.104 201.52 298.327 201.545 298.549 201.524Z" fill="#073150"/>
</g>
<g style="mix-blend-mode:multiply" opacity="0.2">
<path d="M173.519 209.351H196.484C196.706 209.373 196.929 209.348 197.14 209.278C197.352 209.208 197.546 209.095 197.711 208.946C197.876 208.796 198.007 208.614 198.097 208.411C198.187 208.208 198.234 207.988 198.234 207.766C198.234 207.544 198.187 207.324 198.097 207.121C198.007 206.918 197.876 206.736 197.711 206.587C197.546 206.437 197.352 206.324 197.14 206.254C196.929 206.185 196.706 206.16 196.484 206.181H173.519C173.124 206.219 172.758 206.403 172.492 206.696C172.226 206.989 172.078 207.371 172.078 207.766C172.078 208.162 172.226 208.543 172.492 208.836C172.758 209.129 173.124 209.313 173.519 209.351Z" fill="#073150"/>
</g>
<g style="mix-blend-mode:multiply" opacity="0.2">
<path d="M219.525 213.948H173.519C173.124 213.987 172.758 214.17 172.492 214.463C172.226 214.756 172.078 215.138 172.078 215.533C172.078 215.929 172.226 216.311 172.492 216.604C172.758 216.897 173.124 217.08 173.519 217.118H219.525C219.746 217.14 219.97 217.115 220.181 217.045C220.392 216.975 220.586 216.862 220.751 216.713C220.916 216.564 221.048 216.382 221.138 216.178C221.228 215.975 221.275 215.756 221.275 215.533C221.275 215.311 221.228 215.092 221.138 214.888C221.048 214.685 220.916 214.503 220.751 214.354C220.586 214.205 220.392 214.092 220.181 214.022C219.97 213.952 219.746 213.927 219.525 213.948Z" fill="#073150"/>
</g>
<g style="mix-blend-mode:multiply" opacity="0.2">
<path d="M233.716 206.181H202.88C202.486 206.219 202.12 206.403 201.853 206.696C201.587 206.989 201.44 207.371 201.44 207.766C201.44 208.162 201.587 208.543 201.853 208.836C202.12 209.129 202.486 209.313 202.88 209.351H233.716C233.938 209.373 234.161 209.348 234.372 209.278C234.584 209.208 234.778 209.095 234.943 208.946C235.108 208.796 235.239 208.614 235.329 208.411C235.42 208.208 235.466 207.988 235.466 207.766C235.466 207.544 235.42 207.324 235.329 207.121C235.239 206.918 235.108 206.736 234.943 206.587C234.778 206.437 234.584 206.324 234.372 206.254C234.161 206.185 233.938 206.16 233.716 206.181Z" fill="#073150"/>
</g>
<g style="mix-blend-mode:multiply" opacity="0.2">
<path d="M261.919 207.774C261.921 207.565 261.881 207.358 261.803 207.165C261.724 206.972 261.608 206.797 261.461 206.648C261.314 206.5 261.139 206.383 260.947 206.303C260.754 206.222 260.547 206.181 260.338 206.181H240.112C239.891 206.16 239.667 206.185 239.456 206.254C239.245 206.324 239.05 206.437 238.885 206.587C238.721 206.736 238.589 206.918 238.499 207.121C238.409 207.324 238.362 207.544 238.362 207.766C238.362 207.988 238.409 208.208 238.499 208.411C238.589 208.614 238.721 208.796 238.885 208.946C239.05 209.095 239.245 209.208 239.456 209.278C239.667 209.348 239.891 209.373 240.112 209.351H260.338C260.549 209.362 260.759 209.329 260.956 209.253C261.152 209.178 261.331 209.062 261.48 208.913C261.629 208.764 261.745 208.586 261.82 208.39C261.896 208.194 261.929 207.984 261.919 207.774Z" fill="#073150"/>
</g>
<g style="mix-blend-mode:multiply" opacity="0.2">
<path d="M302.732 206.181H287.683C287.462 206.16 287.238 206.185 287.027 206.254C286.815 206.324 286.621 206.437 286.456 206.587C286.292 206.736 286.16 206.918 286.07 207.121C285.98 207.324 285.933 207.544 285.933 207.766C285.933 207.988 285.98 208.208 286.07 208.411C286.16 208.614 286.292 208.796 286.456 208.946C286.621 209.095 286.815 209.208 287.027 209.278C287.238 209.348 287.462 209.373 287.683 209.351H302.732C302.954 209.373 303.177 209.348 303.389 209.278C303.6 209.208 303.794 209.095 303.959 208.946C304.124 208.796 304.256 208.614 304.346 208.411C304.436 208.208 304.482 207.988 304.482 207.766C304.482 207.544 304.436 207.324 304.346 207.121C304.256 206.918 304.124 206.736 303.959 206.587C303.794 206.437 303.6 206.324 303.389 206.254C303.177 206.185 302.954 206.16 302.732 206.181Z" fill="#073150"/>
</g>
<g style="mix-blend-mode:multiply" opacity="0.2">
<path d="M281.377 206.181H269.142C268.921 206.16 268.697 206.185 268.486 206.254C268.275 206.324 268.08 206.437 267.916 206.587C267.751 206.736 267.619 206.918 267.529 207.121C267.439 207.324 267.392 207.544 267.392 207.766C267.392 207.988 267.439 208.208 267.529 208.411C267.619 208.614 267.751 208.796 267.916 208.946C268.08 209.095 268.275 209.208 268.486 209.278C268.697 209.348 268.921 209.373 269.142 209.351H281.377C281.772 209.313 282.138 209.129 282.404 208.836C282.67 208.543 282.818 208.162 282.818 207.766C282.818 207.371 282.67 206.989 282.404 206.696C282.138 206.403 281.772 206.219 281.377 206.181Z" fill="#073150"/>
</g>
</g>
<g style="mix-blend-mode:multiply" opacity="0.2">
<path d="M130.989 126.396H71.996C69.943 126.396 68.2788 128.057 68.2788 130.107V213.82C68.2788 215.869 69.943 217.53 71.996 217.53H130.989C133.042 217.53 134.707 215.869 134.707 213.82V130.107C134.707 128.057 133.042 126.396 130.989 126.396Z" fill="#8258D7"/>
</g>
<path d="M132.374 125.029H73.3805C71.3276 125.029 69.6634 126.69 69.6634 128.739V212.452C69.6634 214.502 71.3276 216.163 73.3805 216.163H132.374C134.427 216.163 136.091 214.502 136.091 212.452V128.739C136.091 126.69 134.427 125.029 132.374 125.029Z" fill="#E0F0FF"/>
<g style="mix-blend-mode:multiply" opacity="0.2">
<path d="M130.117 172.053H76.6011V178.454H130.117V172.053Z" fill="#817EF9"/>
</g>
<g style="mix-blend-mode:multiply" opacity="0.2">
<g style="mix-blend-mode:multiply" opacity="0.2">
<path d="M77.2331 183.186H93.1704C93.2547 183.186 93.3382 183.169 93.4159 183.137C93.4935 183.104 93.5638 183.056 93.6227 182.996C93.6816 182.936 93.7279 182.864 93.7587 182.786C93.7896 182.708 93.8045 182.624 93.8025 182.54C93.8025 182.371 93.7364 182.209 93.6183 182.088C93.5002 181.968 93.3394 181.898 93.1704 181.894H77.2331C77.0641 181.898 76.9034 181.968 76.7853 182.088C76.6671 182.209 76.601 182.371 76.6011 182.54C76.5991 182.624 76.614 182.708 76.6448 182.786C76.6757 182.864 76.722 182.936 76.7809 182.996C76.8397 183.056 76.91 183.104 76.9877 183.137C77.0654 183.169 77.1489 183.186 77.2331 183.186Z" fill="#817EF9"/>
</g>
<g style="mix-blend-mode:multiply" opacity="0.2">
<path d="M95.5031 182.78V182.9L95.5783 182.991L95.6837 183.081H95.789H95.9095H96.1653H96.2857C96.3203 183.089 96.3564 183.089 96.3911 183.081L96.4963 182.991V182.9C96.5044 182.861 96.5044 182.82 96.4963 182.78V182.66C96.4963 182.66 96.4963 182.585 96.4963 182.54C96.4963 182.495 96.4963 182.45 96.4963 182.42V182.3C96.5041 182.265 96.5041 182.229 96.4963 182.194C96.458 182.116 96.3944 182.052 96.3157 182.014H96.2104H96.09C95.9849 181.993 95.8762 181.999 95.7738 182.03C95.6714 182.062 95.5783 182.118 95.5031 182.194L95.4279 182.3C95.425 182.335 95.425 182.37 95.4279 182.405C95.4279 182.405 95.4279 182.48 95.4279 182.525C95.4075 182.604 95.4075 182.686 95.4279 182.765C95.4279 182.765 95.5031 182.75 95.5031 182.78Z" fill="#817EF9"/>
</g>
<g style="mix-blend-mode:multiply" opacity="0.2">
<path d="M98.9945 183.186H104.156C104.328 183.186 104.493 183.118 104.614 182.997C104.735 182.876 104.804 182.711 104.804 182.54C104.804 182.369 104.735 182.204 104.614 182.083C104.493 181.962 104.328 181.894 104.156 181.894H98.9945C98.8229 181.894 98.6583 181.962 98.5369 182.083C98.4155 182.204 98.3474 182.369 98.3474 182.54C98.3474 182.711 98.4155 182.876 98.5369 182.997C98.6583 183.118 98.8229 183.186 98.9945 183.186Z" fill="#817EF9"/>
</g>
<g style="mix-blend-mode:multiply" opacity="0.2">
<path d="M106.489 183.186H125.301C125.472 183.186 125.637 183.118 125.758 182.997C125.88 182.876 125.948 182.711 125.948 182.54C125.944 182.37 125.875 182.208 125.754 182.087C125.634 181.967 125.471 181.898 125.301 181.894H106.489C106.317 181.894 106.153 181.962 106.032 182.083C105.91 182.204 105.842 182.369 105.842 182.54C105.842 182.711 105.91 182.876 106.032 182.997C106.153 183.118 106.317 183.186 106.489 183.186Z" fill="#817EF9"/>
</g>
<g style="mix-blend-mode:multiply" opacity="0.2">
<path d="M127.784 183.186H129.469C129.641 183.186 129.806 183.118 129.927 182.997C130.048 182.876 130.117 182.711 130.117 182.54C130.117 182.369 130.048 182.204 129.927 182.083C129.806 181.962 129.641 181.894 129.469 181.894H127.784C127.612 181.894 127.448 181.962 127.326 182.083C127.205 182.204 127.137 182.369 127.137 182.54C127.137 182.711 127.205 182.876 127.326 182.997C127.448 183.118 127.612 183.186 127.784 183.186Z" fill="#817EF9"/>
</g>
<g style="mix-blend-mode:multiply" opacity="0.2">
<path d="M77.2331 186.341H86.4735C86.5657 186.355 86.6599 186.349 86.7496 186.324C86.8393 186.298 86.9224 186.253 86.9933 186.193C87.0641 186.132 87.1208 186.057 87.1598 185.972C87.1988 185.888 87.2189 185.796 87.2189 185.702C87.2189 185.609 87.1988 185.517 87.1598 185.433C87.1208 185.348 87.0641 185.273 86.9933 185.212C86.9224 185.151 86.8393 185.107 86.7496 185.081C86.6599 185.056 86.5657 185.05 86.4735 185.064H77.188C77.0353 185.087 76.8959 185.165 76.7953 185.282C76.6946 185.399 76.6393 185.548 76.6393 185.702C76.6393 185.857 76.6946 186.006 76.7953 186.123C76.8959 186.24 77.0353 186.317 77.188 186.341H77.2331Z" fill="#817EF9"/>
</g>
<g style="mix-blend-mode:multiply" opacity="0.2">
<path d="M95.8341 188.234H77.2331C77.0804 188.257 76.941 188.335 76.8404 188.452C76.7397 188.569 76.6844 188.718 76.6844 188.872C76.6844 189.027 76.7397 189.176 76.8404 189.293C76.941 189.41 77.0804 189.488 77.2331 189.511H95.8341C95.9263 189.525 96.0206 189.519 96.1103 189.494C96.2 189.468 96.2831 189.423 96.3539 189.363C96.4247 189.302 96.4816 189.227 96.5205 189.142C96.5595 189.058 96.5797 188.966 96.5797 188.872C96.5797 188.779 96.5595 188.687 96.5205 188.603C96.4816 188.518 96.4247 188.443 96.3539 188.382C96.2831 188.321 96.2 188.277 96.1103 188.251C96.0206 188.226 95.9263 188.22 95.8341 188.234Z" fill="#817EF9"/>
</g>
<g style="mix-blend-mode:multiply" opacity="0.2">
<path d="M101.523 185.034H89.0619C88.9091 185.057 88.7699 185.135 88.6692 185.252C88.5686 185.369 88.5133 185.518 88.5133 185.672C88.5133 185.827 88.5686 185.976 88.6692 186.093C88.7699 186.21 88.9091 186.287 89.0619 186.311H101.523C101.615 186.325 101.709 186.319 101.799 186.294C101.889 186.268 101.972 186.223 102.043 186.163C102.113 186.102 102.17 186.027 102.209 185.942C102.248 185.858 102.268 185.766 102.268 185.672C102.268 185.579 102.248 185.487 102.209 185.403C102.17 185.318 102.113 185.243 102.043 185.182C101.972 185.121 101.889 185.077 101.799 185.051C101.709 185.026 101.615 185.02 101.523 185.034Z" fill="#817EF9"/>
</g>
<g style="mix-blend-mode:multiply" opacity="0.2">
<path d="M112.975 185.71C112.975 185.539 112.907 185.374 112.786 185.253C112.664 185.132 112.5 185.064 112.328 185.064H104.156C104.064 185.05 103.97 185.056 103.88 185.081C103.791 185.107 103.707 185.151 103.637 185.212C103.566 185.273 103.509 185.348 103.47 185.433C103.431 185.517 103.411 185.609 103.411 185.702C103.411 185.796 103.431 185.888 103.47 185.972C103.509 186.057 103.566 186.132 103.637 186.193C103.707 186.253 103.791 186.298 103.88 186.324C103.97 186.349 104.064 186.355 104.156 186.341H112.328C112.412 186.343 112.496 186.328 112.575 186.297C112.653 186.266 112.725 186.22 112.785 186.162C112.845 186.103 112.893 186.032 112.926 185.955C112.958 185.877 112.975 185.794 112.975 185.71Z" fill="#817EF9"/>
</g>
<g style="mix-blend-mode:multiply" opacity="0.2">
<path d="M129.469 185.034H123.45C123.297 185.057 123.158 185.135 123.057 185.252C122.956 185.369 122.901 185.518 122.901 185.672C122.901 185.827 122.956 185.976 123.057 186.093C123.158 186.21 123.297 186.287 123.45 186.311H129.469C129.562 186.325 129.656 186.319 129.746 186.294C129.835 186.268 129.918 186.223 129.989 186.163C130.06 186.102 130.117 186.027 130.156 185.942C130.195 185.858 130.215 185.766 130.215 185.672C130.215 185.579 130.195 185.487 130.156 185.403C130.117 185.318 130.06 185.243 129.989 185.182C129.918 185.121 129.835 185.077 129.746 185.051C129.656 185.026 129.562 185.02 129.469 185.034Z" fill="#817EF9"/>
</g>
<g style="mix-blend-mode:multiply" opacity="0.2">
<path d="M120.831 185.034H115.895C115.803 185.02 115.708 185.026 115.619 185.051C115.529 185.077 115.446 185.121 115.375 185.182C115.304 185.243 115.248 185.318 115.209 185.403C115.17 185.487 115.149 185.579 115.149 185.672C115.149 185.766 115.17 185.858 115.209 185.942C115.248 186.027 115.304 186.102 115.375 186.163C115.446 186.223 115.529 186.268 115.619 186.294C115.708 186.319 115.803 186.325 115.895 186.311H120.831C120.923 186.325 121.018 186.319 121.107 186.294C121.197 186.268 121.28 186.223 121.351 186.163C121.422 186.102 121.478 186.027 121.517 185.942C121.556 185.858 121.577 185.766 121.577 185.672C121.577 185.579 121.556 185.487 121.517 185.403C121.478 185.318 121.422 185.243 121.351 185.182C121.28 185.121 121.197 185.077 121.107 185.051C121.018 185.026 120.923 185.02 120.831 185.034Z" fill="#817EF9"/>
</g>
</g>
<path d="M95.2773 149.247H76.6011V167.892H95.2773V149.247Z" fill="#FFFEFF"/>
<g style="mix-blend-mode:multiply" opacity="0.2">
<path d="M100.439 192.846H76.6011V211.491H100.439V192.846Z" fill="#817EF9"/>
</g>
<g style="mix-blend-mode:multiply" opacity="0.2">
<path d="M130.116 192.846H106.278V211.491H130.116V192.846Z" fill="#817EF9"/>
</g>
<path d="M129.289 150.915H100.695C100.476 150.915 100.265 150.828 100.11 150.673C99.9546 150.518 99.8674 150.308 99.8674 150.088C99.8654 149.979 99.8853 149.87 99.926 149.768C99.9667 149.666 100.027 149.573 100.104 149.494C100.181 149.416 100.273 149.354 100.375 149.311C100.476 149.269 100.585 149.247 100.695 149.247H129.289C129.51 149.251 129.72 149.341 129.875 149.499C130.03 149.656 130.117 149.868 130.117 150.088C130.117 150.308 130.029 150.518 129.874 150.673C129.719 150.828 129.508 150.915 129.289 150.915Z" fill="#FFFEFF"/>
<path d="M129.289 155.167H100.695C100.585 155.167 100.476 155.145 100.375 155.102C100.273 155.06 100.181 154.998 100.104 154.919C100.027 154.841 99.9667 154.748 99.926 154.646C99.8853 154.544 99.8654 154.435 99.8674 154.325C99.8674 154.106 99.9546 153.896 100.11 153.741C100.265 153.586 100.476 153.499 100.695 153.499H129.289C129.508 153.499 129.719 153.586 129.874 153.741C130.029 153.896 130.117 154.106 130.117 154.325C130.117 154.546 130.03 154.758 129.875 154.915C129.72 155.072 129.51 155.163 129.289 155.167Z" fill="#FFFEFF"/>
<path d="M129.289 159.403H100.695C100.476 159.403 100.265 159.316 100.11 159.161C99.9546 159.006 99.8674 158.796 99.8674 158.577C99.8654 158.467 99.8853 158.358 99.926 158.256C99.9667 158.154 100.027 158.061 100.104 157.983C100.181 157.905 100.273 157.842 100.375 157.8C100.476 157.757 100.585 157.736 100.695 157.736H129.289C129.51 157.74 129.72 157.83 129.875 157.987C130.03 158.145 130.117 158.356 130.117 158.577C130.117 158.796 130.029 159.006 129.874 159.161C129.719 159.316 129.508 159.403 129.289 159.403Z" fill="#FFFEFF"/>
<path d="M129.289 163.655H100.695C100.585 163.655 100.476 163.633 100.375 163.591C100.273 163.548 100.181 163.486 100.104 163.408C100.027 163.329 99.9667 163.236 99.926 163.134C99.8853 163.032 99.8654 162.923 99.8674 162.814C99.8674 162.594 99.9546 162.384 100.11 162.229C100.265 162.074 100.476 161.987 100.695 161.987H129.289C129.508 161.987 129.719 162.074 129.874 162.229C130.029 162.384 130.117 162.594 130.117 162.814C130.117 163.034 130.03 163.246 129.875 163.403C129.72 163.561 129.51 163.651 129.289 163.655Z" fill="#FFFEFF"/>
<path d="M111.696 167.907H100.695C100.585 167.907 100.476 167.885 100.375 167.842C100.273 167.8 100.181 167.738 100.104 167.659C100.027 167.581 99.9667 167.488 99.926 167.386C99.8853 167.284 99.8654 167.175 99.8674 167.065C99.8654 166.956 99.8853 166.847 99.926 166.745C99.9667 166.643 100.027 166.55 100.104 166.471C100.181 166.393 100.273 166.331 100.375 166.288C100.476 166.246 100.585 166.224 100.695 166.224H111.696C111.807 166.224 111.916 166.246 112.019 166.288C112.121 166.33 112.214 166.392 112.292 166.471C112.37 166.549 112.432 166.641 112.475 166.743C112.517 166.846 112.539 166.955 112.539 167.065C112.539 167.289 112.45 167.503 112.292 167.66C112.134 167.818 111.92 167.907 111.696 167.907Z" fill="#FFFEFF"/>
<path d="M482.903 131.324C478.992 131.324 475.168 132.481 471.917 134.651C468.665 136.82 466.13 139.903 464.633 143.51C463.137 147.118 462.745 151.087 463.508 154.916C464.271 158.746 466.155 162.263 468.92 165.024C471.686 167.785 475.209 169.665 479.045 170.427C482.881 171.189 486.857 170.798 490.47 169.304C494.084 167.809 497.172 165.279 499.345 162.033C501.518 158.786 502.678 154.969 502.678 151.065C502.674 145.83 500.589 140.811 496.881 137.11C493.174 133.409 488.146 131.328 482.903 131.324ZM498.945 149.247H494.009C493.89 144.982 492.799 140.799 490.819 137.018C493.042 138.273 494.937 140.036 496.349 142.161C497.761 144.286 498.651 146.714 498.945 149.247ZM481.082 135.455V149.202H475.423C475.8 142.261 478.343 137.123 481.082 135.455ZM481.082 152.823V166.57C478.343 164.947 475.8 159.809 475.423 152.823H481.082ZM484.709 166.57V152.823H490.382C490.006 159.854 487.448 164.992 484.709 166.615V166.57ZM484.709 149.202V135.455C487.448 137.078 490.006 142.216 490.382 149.202H484.709ZM474.987 136.973C473.007 140.754 471.916 144.937 471.797 149.202H466.86C467.149 146.665 468.036 144.233 469.449 142.104C470.861 139.976 472.759 138.212 474.987 136.958V136.973ZM466.86 152.823H471.736C471.854 157.089 472.945 161.271 474.927 165.052C472.718 163.797 470.837 162.039 469.435 159.922C468.034 157.805 467.152 155.389 466.86 152.868V152.823ZM490.819 165.052C492.801 161.271 493.892 157.089 494.009 152.823H498.945C498.658 155.364 497.772 157.801 496.359 159.934C494.947 162.068 493.048 163.837 490.819 165.097V165.052Z" fill="#FE2B01"/>
<path d="M105.33 87.4989C105.217 85.955 104.725 84.4625 103.899 83.1526C103.072 81.8428 101.936 80.7557 100.59 79.987C97.3391 78.2292 92.2674 79.2959 89.4683 81.6997C89.2557 80.124 88.7179 78.6094 87.889 77.2517C87.0601 75.8941 85.958 74.7229 84.6525 73.8122C83.4277 72.9205 82.0246 72.3032 80.539 72.0024C79.0533 71.7017 77.5203 71.7245 76.0443 72.0694C75.8444 70.698 75.2991 69.3997 74.4594 68.2961C73.6198 67.1925 72.5133 66.3197 71.2435 65.7594C70.0007 65.2333 68.6419 65.0398 67.3013 65.1978C65.9606 65.3559 64.6843 65.8602 63.5985 66.6609C61.6617 64.7725 59.1993 63.5114 56.5332 63.0423C53.867 62.5733 51.1212 62.9181 48.6545 64.0317C46.2653 65.2541 44.3058 67.174 43.0368 69.5359C41.7678 71.8977 41.2496 74.5895 41.5512 77.2527C40.0629 76.2142 38.3182 75.6022 36.5064 75.483C34.6945 75.3638 32.8845 75.742 31.2725 76.5766C27.5553 78.5597 25.629 83.0369 25.2528 87.4839L105.33 87.4989Z" fill="#E0F0FF"/>
<g style="mix-blend-mode:multiply" opacity="0.2">
<path d="M375.27 173.871H313.583C311.979 173.871 310.678 175.169 310.678 176.771V208.216C310.678 209.817 311.979 211.115 313.583 211.115H375.27C376.874 211.115 378.175 209.817 378.175 208.216V176.771C378.175 175.169 376.874 173.871 375.27 173.871Z" fill="#8258D7"/>
</g>
<path d="M377.001 172.143H315.314C313.709 172.143 312.409 173.442 312.409 175.043V206.488C312.409 208.089 313.709 209.388 315.314 209.388H377.001C378.605 209.388 379.905 208.089 379.905 206.488V175.043C379.905 173.442 378.605 172.143 377.001 172.143Z" fill="#FFFEFF"/>
<path d="M319.272 180.527H352.154C352.341 180.547 352.53 180.527 352.709 180.469C352.887 180.412 353.052 180.317 353.192 180.191C353.331 180.066 353.443 179.913 353.519 179.741C353.596 179.57 353.635 179.385 353.635 179.197C353.635 179.01 353.596 178.824 353.519 178.653C353.443 178.482 353.331 178.328 353.192 178.203C353.052 178.078 352.887 177.983 352.709 177.925C352.53 177.867 352.341 177.848 352.154 177.868H319.272C318.943 177.903 318.638 178.058 318.417 178.303C318.196 178.549 318.074 178.867 318.074 179.197C318.074 179.527 318.196 179.846 318.417 180.091C318.638 180.337 318.943 180.492 319.272 180.527Z" fill="#DEEFFF"/>
<path d="M357.06 179.685C357.091 179.77 357.132 179.85 357.181 179.926L357.346 180.121C357.404 180.184 357.47 180.24 357.542 180.286L357.768 180.407L358.024 180.482H358.279H358.55L358.791 180.407L359.017 180.286L359.227 180.121C359.282 180.06 359.333 179.994 359.378 179.926C359.432 179.851 359.477 179.77 359.513 179.685C359.547 179.608 359.573 179.528 359.589 179.445C359.596 179.36 359.596 179.275 359.589 179.19C359.597 179.105 359.597 179.019 359.589 178.934C359.571 178.847 359.545 178.762 359.513 178.679C359.474 178.6 359.429 178.525 359.378 178.453L359.227 178.243L359.017 178.078L358.791 177.958L358.55 177.883C358.335 177.841 358.114 177.852 357.904 177.915C357.694 177.978 357.503 178.09 357.346 178.243C357.286 178.309 357.231 178.38 357.181 178.453C357.135 178.525 357.095 178.601 357.06 178.679C357.047 178.763 357.047 178.85 357.06 178.934C357.052 179.019 357.052 179.105 357.06 179.19C357.053 179.275 357.053 179.36 357.06 179.445C357.045 179.524 357.045 179.606 357.06 179.685Z" fill="#DEEFFF"/>
<path d="M364.179 180.527H372.546C372.875 180.492 373.179 180.337 373.4 180.091C373.621 179.846 373.744 179.527 373.744 179.197C373.744 178.867 373.621 178.549 373.4 178.303C373.179 178.058 372.875 177.902 372.546 177.868H364.179C363.85 177.902 363.546 178.058 363.325 178.303C363.103 178.549 362.981 178.867 362.981 179.197C362.981 179.527 363.103 179.846 363.325 180.091C363.546 180.337 363.85 180.492 364.179 180.527Z" fill="#DEEFFF"/>
<path d="M319.272 187.047H338.444C338.773 187.012 339.077 186.857 339.298 186.612C339.52 186.366 339.642 186.048 339.642 185.718C339.642 185.387 339.52 185.069 339.298 184.824C339.077 184.578 338.773 184.423 338.444 184.388H319.272C318.943 184.423 318.638 184.578 318.417 184.824C318.196 185.069 318.074 185.387 318.074 185.718C318.074 186.048 318.196 186.366 318.417 186.612C318.638 186.857 318.943 187.012 319.272 187.047Z" fill="#DEEFFF"/>
<path d="M357.677 190.923H319.272C318.943 190.958 318.638 191.113 318.417 191.359C318.196 191.604 318.074 191.923 318.074 192.253C318.074 192.583 318.196 192.902 318.417 193.147C318.638 193.392 318.943 193.548 319.272 193.583H357.677C358.006 193.548 358.31 193.392 358.532 193.147C358.753 192.902 358.875 192.583 358.875 192.253C358.875 191.923 358.753 191.604 358.532 191.359C358.31 191.113 358.006 190.958 357.677 190.923Z" fill="#DEEFFF"/>
<path d="M364.615 184.388H343.817C343.488 184.423 343.184 184.578 342.963 184.824C342.742 185.069 342.619 185.387 342.619 185.718C342.619 186.048 342.742 186.366 342.963 186.612C343.184 186.857 343.488 187.012 343.817 187.047H364.645C364.974 187.012 365.278 186.857 365.499 186.612C365.721 186.366 365.843 186.048 365.843 185.718C365.843 185.387 365.721 185.069 365.499 184.824C365.278 184.578 364.974 184.423 364.645 184.388H364.615Z" fill="#DEEFFF"/>
<path d="M372.546 184.388H369.958C369.629 184.423 369.325 184.578 369.103 184.824C368.882 185.069 368.76 185.387 368.76 185.718C368.76 186.048 368.882 186.366 369.103 186.612C369.325 186.857 369.629 187.012 369.958 187.047H372.546C372.875 187.012 373.179 186.857 373.4 186.612C373.621 186.366 373.744 186.048 373.744 185.718C373.744 185.387 373.621 185.069 373.4 184.824C373.179 184.578 372.875 184.423 372.546 184.388Z" fill="#DEEFFF"/>
<g style="mix-blend-mode:multiply" opacity="0.2">
<path d="M407.686 96.4683H327.263C326.492 96.4683 325.754 96.7738 325.209 97.3176C324.664 97.8614 324.358 98.5989 324.358 99.3679V145.341C324.362 146.109 324.669 146.844 325.213 147.387C325.757 147.93 326.494 148.237 327.263 148.241H407.656L407.686 96.4683Z" fill="#8258D7"/>
</g>
<path d="M417.408 94.3799H329.4C327.796 94.3799 326.495 95.6781 326.495 97.2795V143.253C326.495 144.854 327.796 146.152 329.4 146.152H417.408C419.012 146.152 420.313 144.854 420.313 143.253V97.2795C420.313 95.6781 419.012 94.3799 417.408 94.3799Z" fill="url(#paint8_linear)"/>
<g style="mix-blend-mode:multiply" opacity="0.2">
<path d="M370.409 124.322V102.207H337.06V124.322H370.409Z" fill="#2343AA"/>
</g>
<path d="M369.401 130.633H338.068C337.933 130.635 337.799 130.61 337.674 130.559C337.549 130.508 337.435 130.433 337.34 130.338C337.245 130.243 337.169 130.129 337.119 130.004C337.068 129.879 337.043 129.746 337.045 129.611C337.045 129.34 337.153 129.08 337.345 128.888C337.536 128.697 337.797 128.589 338.068 128.589H369.401C369.67 128.593 369.926 128.703 370.115 128.894C370.303 129.085 370.409 129.342 370.409 129.611C370.411 129.744 370.387 129.877 370.337 130.001C370.287 130.125 370.213 130.237 370.119 130.332C370.025 130.427 369.914 130.503 369.79 130.554C369.667 130.606 369.535 130.633 369.401 130.633Z" fill="#FFFEFF"/>
<path d="M352.32 134.929H338.068C337.797 134.929 337.536 134.822 337.344 134.63C337.153 134.439 337.045 134.179 337.045 133.908C337.045 133.637 337.153 133.377 337.344 133.185C337.536 132.994 337.797 132.886 338.068 132.886H352.32C352.59 132.89 352.848 132.999 353.039 133.19C353.23 133.38 353.339 133.638 353.343 133.908C353.339 134.177 353.23 134.435 353.039 134.626C352.848 134.817 352.59 134.925 352.32 134.929Z" fill="#FFFEFF"/>
<path d="M369.401 134.929H356.805C356.533 134.929 356.273 134.822 356.081 134.63C355.889 134.439 355.781 134.179 355.781 133.908C355.781 133.637 355.889 133.377 356.081 133.185C356.273 132.994 356.533 132.886 356.805 132.886H369.401C369.67 132.89 369.926 132.999 370.115 133.191C370.303 133.382 370.409 133.639 370.409 133.908C370.409 134.176 370.303 134.434 370.115 134.625C369.926 134.816 369.67 134.925 369.401 134.929Z" fill="#FFFEFF"/>
<path d="M343.501 139.226H338.068C337.797 139.226 337.536 139.118 337.344 138.927C337.153 138.735 337.045 138.475 337.045 138.204C337.045 137.934 337.153 137.674 337.344 137.482C337.536 137.291 337.797 137.183 338.068 137.183H343.501C343.77 137.187 344.026 137.296 344.215 137.487C344.404 137.679 344.509 137.936 344.509 138.204C344.509 138.473 344.404 138.73 344.215 138.922C344.026 139.113 343.77 139.222 343.501 139.226Z" fill="#FFFEFF"/>
<path d="M411.072 104.867H379.755C379.486 104.863 379.23 104.753 379.041 104.562C378.852 104.371 378.746 104.113 378.747 103.845C378.745 103.712 378.769 103.579 378.819 103.455C378.869 103.331 378.943 103.219 379.036 103.123C379.13 103.028 379.242 102.953 379.365 102.901C379.489 102.85 379.621 102.823 379.755 102.823H411.072C411.207 102.821 411.341 102.846 411.466 102.897C411.591 102.948 411.705 103.023 411.801 103.118C411.896 103.213 411.971 103.327 412.022 103.452C412.073 103.576 412.098 103.71 412.096 103.845C412.096 104.116 411.988 104.376 411.796 104.567C411.604 104.759 411.344 104.867 411.072 104.867Z" fill="#FFFEFF"/>
<path d="M394.006 109.148H379.755C379.622 109.148 379.491 109.122 379.369 109.072C379.247 109.021 379.135 108.947 379.042 108.854C378.948 108.76 378.874 108.649 378.823 108.527C378.773 108.405 378.747 108.274 378.747 108.142C378.745 108.008 378.769 107.876 378.819 107.752C378.869 107.628 378.943 107.515 379.036 107.42C379.13 107.325 379.242 107.25 379.365 107.198C379.489 107.147 379.621 107.12 379.755 107.12H394.006C394.141 107.118 394.275 107.143 394.401 107.194C394.526 107.244 394.639 107.32 394.735 107.415C394.83 107.51 394.905 107.624 394.956 107.749C395.007 107.873 395.032 108.007 395.03 108.142C395.03 108.275 395.003 108.407 394.952 108.531C394.9 108.654 394.824 108.765 394.729 108.859C394.634 108.953 394.521 109.026 394.397 109.076C394.273 109.126 394.14 109.15 394.006 109.148Z" fill="#FFFEFF"/>
<path d="M411.072 109.148H398.476C398.207 109.148 397.949 109.043 397.758 108.855C397.566 108.666 397.457 108.41 397.453 108.142C397.453 108.008 397.479 107.875 397.531 107.751C397.582 107.627 397.657 107.514 397.752 107.419C397.848 107.325 397.96 107.249 398.085 107.198C398.209 107.147 398.342 107.12 398.476 107.12H411.072C411.207 107.118 411.341 107.143 411.466 107.194C411.592 107.244 411.705 107.32 411.801 107.415C411.896 107.51 411.971 107.624 412.022 107.749C412.073 107.873 412.098 108.007 412.096 108.142C412.096 108.275 412.069 108.407 412.018 108.531C411.966 108.654 411.891 108.765 411.795 108.859C411.7 108.953 411.587 109.026 411.463 109.076C411.339 109.126 411.206 109.15 411.072 109.148Z" fill="#FFFEFF"/>
<path d="M402.103 113.445H379.755C379.622 113.445 379.491 113.419 379.369 113.369C379.247 113.318 379.135 113.244 379.042 113.15C378.948 113.057 378.874 112.946 378.823 112.824C378.773 112.702 378.747 112.571 378.747 112.439C378.745 112.305 378.769 112.173 378.819 112.049C378.869 111.925 378.943 111.812 379.036 111.717C379.13 111.622 379.242 111.547 379.365 111.495C379.489 111.444 379.621 111.417 379.755 111.417H402.103C402.374 111.417 402.635 111.525 402.827 111.716C403.019 111.908 403.126 112.168 403.126 112.439C403.122 112.707 403.013 112.963 402.821 113.151C402.63 113.34 402.372 113.445 402.103 113.445Z" fill="#FFFEFF"/>
<path d="M411.072 113.445H406.061C405.929 113.445 405.797 113.419 405.675 113.369C405.553 113.318 405.442 113.244 405.348 113.15C405.254 113.057 405.18 112.946 405.129 112.824C405.079 112.702 405.053 112.571 405.053 112.439C405.051 112.305 405.075 112.173 405.125 112.049C405.175 111.925 405.249 111.812 405.343 111.717C405.436 111.622 405.548 111.547 405.672 111.495C405.795 111.443 405.927 111.417 406.061 111.417H411.072C411.207 111.415 411.341 111.44 411.466 111.491C411.591 111.541 411.705 111.616 411.801 111.712C411.896 111.807 411.971 111.92 412.022 112.045C412.073 112.17 412.098 112.304 412.096 112.439C412.096 112.572 412.069 112.704 412.018 112.827C411.966 112.95 411.89 113.062 411.795 113.156C411.7 113.249 411.587 113.323 411.463 113.373C411.339 113.423 411.206 113.447 411.072 113.445Z" fill="#FFFEFF"/>
<path d="M389.341 117.742H379.755C379.621 117.742 379.489 117.716 379.365 117.664C379.242 117.613 379.13 117.537 379.036 117.442C378.943 117.347 378.869 117.234 378.819 117.11C378.769 116.986 378.745 116.854 378.747 116.72C378.747 116.454 378.853 116.197 379.042 116.009C379.231 115.82 379.487 115.714 379.755 115.714H389.341C389.609 115.714 389.865 115.82 390.054 116.009C390.243 116.197 390.35 116.454 390.35 116.72C390.352 116.854 390.327 116.986 390.277 117.11C390.227 117.234 390.153 117.347 390.059 117.442C389.966 117.537 389.854 117.613 389.731 117.664C389.607 117.716 389.475 117.742 389.341 117.742Z" fill="#FFFEFF"/>
<path d="M388.739 130.633H394.909C395.044 130.633 395.177 130.606 395.301 130.555C395.425 130.503 395.538 130.428 395.633 130.333C395.728 130.238 395.803 130.126 395.855 130.002C395.906 129.878 395.933 129.745 395.933 129.611C395.929 129.341 395.82 129.084 395.629 128.893C395.438 128.702 395.18 128.593 394.909 128.589H388.739C388.468 128.589 388.207 128.697 388.015 128.888C387.824 129.08 387.716 129.34 387.716 129.611C387.714 129.746 387.739 129.879 387.79 130.004C387.84 130.129 387.916 130.243 388.011 130.338C388.106 130.433 388.22 130.508 388.345 130.559C388.47 130.61 388.604 130.635 388.739 130.633Z" fill="#FFFEFF"/>
<path d="M379.755 130.633H384.766C384.901 130.635 385.035 130.61 385.16 130.559C385.285 130.508 385.399 130.433 385.494 130.338C385.59 130.243 385.665 130.129 385.716 130.004C385.766 129.879 385.792 129.746 385.79 129.611C385.79 129.477 385.763 129.344 385.712 129.22C385.66 129.096 385.585 128.983 385.49 128.888C385.395 128.794 385.282 128.718 385.158 128.667C385.034 128.616 384.901 128.589 384.766 128.589H379.755C379.486 128.593 379.23 128.703 379.041 128.894C378.852 129.085 378.746 129.342 378.747 129.611C378.745 129.744 378.769 129.877 378.819 130.001C378.869 130.125 378.943 130.237 379.036 130.332C379.13 130.427 379.242 130.503 379.365 130.554C379.489 130.606 379.621 130.633 379.755 130.633Z" fill="#FFFEFF"/>
<path d="M379.755 139.226H384.766C384.901 139.226 385.034 139.2 385.158 139.148C385.282 139.097 385.395 139.022 385.49 138.927C385.585 138.832 385.66 138.719 385.712 138.595C385.763 138.471 385.79 138.339 385.79 138.204C385.79 138.07 385.763 137.937 385.712 137.814C385.66 137.69 385.585 137.577 385.49 137.482C385.395 137.387 385.282 137.312 385.158 137.261C385.034 137.209 384.901 137.183 384.766 137.183H379.755C379.486 137.187 379.23 137.296 379.041 137.487C378.852 137.679 378.746 137.936 378.747 138.204C378.746 138.473 378.852 138.73 379.041 138.922C379.23 139.113 379.486 139.222 379.755 139.226Z" fill="#FFFEFF"/>
<path d="M379.755 134.929H388.092C388.227 134.929 388.359 134.903 388.484 134.852C388.608 134.8 388.721 134.725 388.816 134.63C388.911 134.535 388.986 134.423 389.038 134.299C389.089 134.175 389.115 134.042 389.115 133.908C389.115 133.774 389.089 133.641 389.038 133.517C388.986 133.393 388.911 133.28 388.816 133.185C388.721 133.09 388.608 133.015 388.484 132.964C388.359 132.913 388.227 132.886 388.092 132.886H379.755C379.486 132.89 379.23 132.999 379.041 133.191C378.852 133.382 378.746 133.639 378.747 133.908C378.746 134.176 378.852 134.434 379.041 134.625C379.23 134.816 379.486 134.925 379.755 134.929Z" fill="#FFFEFF"/>
<path d="M385.955 126.336H379.77C379.636 126.336 379.504 126.309 379.38 126.258C379.257 126.206 379.145 126.131 379.051 126.036C378.958 125.941 378.884 125.828 378.834 125.704C378.784 125.58 378.759 125.448 378.761 125.314C378.761 125.046 378.867 124.788 379.056 124.597C379.245 124.406 379.501 124.296 379.77 124.292H385.955C386.224 124.296 386.48 124.406 386.669 124.597C386.858 124.788 386.964 125.046 386.964 125.314C386.966 125.448 386.941 125.58 386.891 125.704C386.841 125.828 386.767 125.941 386.673 126.036C386.58 126.131 386.468 126.206 386.345 126.258C386.221 126.309 386.089 126.336 385.955 126.336Z" fill="#FFFEFF"/>
<path d="M394.985 126.336H389.973C389.839 126.336 389.706 126.309 389.582 126.258C389.457 126.207 389.345 126.131 389.25 126.036C389.155 125.942 389.079 125.829 389.028 125.705C388.976 125.581 388.95 125.448 388.95 125.314C388.954 125.044 389.063 124.787 389.254 124.596C389.445 124.405 389.703 124.296 389.973 124.292H394.985C395.255 124.296 395.513 124.405 395.704 124.596C395.895 124.787 396.004 125.044 396.008 125.314C396.008 125.448 395.982 125.581 395.93 125.705C395.879 125.829 395.803 125.942 395.708 126.036C395.613 126.131 395.501 126.207 395.376 126.258C395.252 126.309 395.119 126.336 394.985 126.336Z" fill="#FFFEFF"/>
<g style="mix-blend-mode:multiply" opacity="0.2">
<path d="M412.096 124.338H400.011V139.226H412.096V124.338Z" fill="#2343AA"/>
</g>
<path d="M141.163 16.5864H106.88C105.276 16.5864 103.976 17.8846 103.976 19.486V39.7082C103.976 41.3096 105.276 42.6078 106.88 42.6078H141.163C142.767 42.6078 144.067 41.3096 144.067 39.7082V19.486C144.067 17.8846 142.767 16.5864 141.163 16.5864Z" fill="url(#paint9_linear)"/>
<path d="M120.109 25.0898V34.7051L128.822 29.8975L120.109 25.0898Z" fill="#FFFEFF"/>
<path d="M469.013 110.558C469.017 109.27 468.824 107.988 468.442 106.757L470.097 105.796L467.193 100.778L465.537 101.739C463.77 99.8426 461.474 98.5186 458.946 97.9381V96H453.136V97.908C450.612 98.4887 448.321 99.8129 446.56 101.709L444.904 100.748L442 105.766L443.655 106.727C442.908 109.176 442.908 111.791 443.655 114.239L442 115.2L444.904 120.218L446.56 119.257C448.321 121.153 450.612 122.477 453.136 123.058V124.966H458.946V123.058C461.474 122.478 463.77 121.154 465.537 119.257L467.193 120.218L470.097 115.2L468.442 114.239C468.814 113.047 469.006 111.807 469.013 110.558ZM456.041 118.671C454.43 118.671 452.855 118.194 451.516 117.3C450.177 116.406 449.133 115.136 448.518 113.65C447.902 112.164 447.741 110.529 448.057 108.952C448.372 107.375 449.149 105.927 450.289 104.79C451.429 103.654 452.881 102.881 454.462 102.57C456.042 102.258 457.68 102.421 459.167 103.038C460.655 103.656 461.925 104.7 462.818 106.038C463.711 107.377 464.186 108.95 464.183 110.558C464.183 111.625 463.972 112.681 463.563 113.666C463.153 114.652 462.553 115.547 461.797 116.3C461.041 117.054 460.143 117.651 459.156 118.058C458.168 118.465 457.109 118.673 456.041 118.671Z" fill="#D11E1E"/>
<path d="M407.536 4.08653C407.566 3.99884 407.566 3.9038 407.536 3.81611C407.512 3.72694 407.469 3.64419 407.409 3.57398C407.349 3.50377 407.274 3.44789 407.19 3.41046H406.919C406.828 3.40575 406.738 3.41929 406.652 3.45026C406.567 3.48123 406.489 3.52899 406.422 3.59074C406.355 3.65109 406.301 3.72527 406.264 3.80823C406.228 3.89118 406.21 3.98098 406.212 4.07151C406.198 4.16013 406.205 4.25064 406.231 4.33643C406.257 4.42222 406.302 4.5011 406.362 4.5673C406.424 4.63264 406.499 4.68489 406.582 4.72101C406.664 4.75713 406.753 4.77639 406.844 4.77764C406.935 4.7924 407.028 4.78656 407.117 4.76056C407.205 4.73456 407.287 4.68905 407.355 4.62739C407.421 4.55472 407.472 4.4691 407.503 4.37598C407.534 4.28285 407.545 4.18426 407.536 4.08653Z" fill="#E0F0FF"/>
<path d="M102.832 67.4272C102.705 67.4417 102.577 67.4304 102.454 67.3941C102.332 67.3577 102.218 67.2971 102.119 67.2157C102.021 67.1343 101.94 67.0339 101.881 66.9205C101.823 66.8071 101.788 66.683 101.779 66.5558L100.981 58.0373L92.4932 58.8335C92.2343 58.8546 91.9775 58.7735 91.7778 58.6079C91.5781 58.4422 91.4513 58.205 91.4246 57.9471L90.6421 49.4436L82.1091 50.2399C81.8503 50.2609 81.5935 50.1799 81.3938 50.0142C81.1941 49.8485 81.0673 49.6114 81.0406 49.3535L80.243 40.835L71.7251 41.6312C71.5919 41.6548 71.4552 41.6505 71.3238 41.6187C71.1924 41.5868 71.069 41.5281 70.9614 41.4463C70.8539 41.3644 70.7644 41.2612 70.6988 41.143C70.6333 41.0249 70.593 40.8945 70.5804 40.7601C70.5679 40.6256 70.5835 40.4901 70.6261 40.3619C70.6687 40.2338 70.7375 40.1158 70.8281 40.0155C70.9187 39.9153 71.0291 39.8349 71.1524 39.7794C71.2757 39.7239 71.4093 39.6945 71.5445 39.6931L81.0406 38.8067C81.2995 38.7857 81.5562 38.8667 81.7559 39.0324C81.9556 39.1981 82.0824 39.4353 82.1091 39.6931L82.9068 48.1966L91.4246 47.4154C91.6819 47.3902 91.9388 47.4677 92.139 47.631C92.3392 47.7943 92.4666 48.0301 92.4932 48.2868L93.2908 56.8053L101.809 56.0091C101.937 55.9967 102.067 56.0098 102.19 56.0477C102.314 56.0856 102.429 56.1476 102.528 56.23C102.627 56.3124 102.709 56.4136 102.769 56.5279C102.829 56.6421 102.866 56.767 102.877 56.8955L103.765 66.3755C103.778 66.5067 103.763 66.639 103.722 66.7642C103.681 66.8894 103.615 67.0049 103.527 67.1035C103.44 67.2022 103.333 67.2818 103.213 67.3374C103.094 67.3931 102.964 67.4237 102.832 67.4272Z" fill="#D11E1E"/>
<path d="M424.195 46.4576C424.052 46.5542 423.886 46.6112 423.714 46.6229C423.542 46.6372 423.369 46.6058 423.213 46.5319C423.057 46.458 422.923 46.3443 422.826 46.2022L416.129 36.3766C416.044 36.2276 416 36.0594 416 35.8883C416 35.7172 416.044 35.549 416.129 35.4C416.202 35.2448 416.317 35.1124 416.46 35.0171C416.603 34.9218 416.77 34.8672 416.941 34.8592L428.891 34.0028C429.062 33.9896 429.234 34.0232 429.388 34.0999C429.541 34.1767 429.671 34.2937 429.763 34.4385C429.848 34.5847 429.893 34.7505 429.893 34.9193C429.893 35.088 429.848 35.2539 429.763 35.4L424.511 46.1571C424.43 46.2801 424.322 46.3829 424.195 46.4576ZM418.687 36.6019L423.503 43.7082L427.265 36.001L418.687 36.6019Z" fill="#D11E1E"/>
<path d="M430.531 150.389C430.405 150.413 430.274 150.411 430.149 150.383C430.023 150.356 429.903 150.303 429.798 150.229C429.693 150.155 429.604 150.06 429.536 149.951C429.468 149.842 429.422 149.72 429.403 149.593L427.401 137.799C427.373 137.629 427.39 137.455 427.451 137.294C427.511 137.133 427.614 136.991 427.747 136.882C427.88 136.774 428.039 136.703 428.208 136.677C428.378 136.65 428.551 136.669 428.71 136.732L439.937 140.894C440.096 140.956 440.236 141.057 440.344 141.189C440.452 141.32 440.524 141.477 440.554 141.645C440.584 141.812 440.568 141.985 440.507 142.144C440.446 142.303 440.343 142.442 440.208 142.546L430.983 150.179C430.857 150.292 430.699 150.366 430.531 150.389ZM429.613 139.136L431.118 147.609L437.74 142.126L429.613 139.136Z" fill="#D11E1E"/>
<path d="M41.7168 164.782C41.5543 164.827 41.3826 164.827 41.2201 164.782C41.0597 164.723 40.9181 164.622 40.8096 164.49C40.7012 164.358 40.6299 164.199 40.6031 164.031L38.6015 152.237C38.5715 152.069 38.5866 151.896 38.6455 151.736C38.7043 151.576 38.8047 151.435 38.9364 151.326C39.0682 151.217 39.2264 151.146 39.395 151.118C39.5636 151.091 39.7364 151.109 39.8958 151.17L51.1226 155.332C51.2839 155.389 51.427 155.488 51.5373 155.618C51.6476 155.749 51.7211 155.906 51.7502 156.075C51.7794 156.243 51.7631 156.416 51.703 156.576C51.643 156.736 51.5413 156.877 51.4085 156.984L42.1833 164.617C42.0466 164.715 41.8848 164.772 41.7168 164.782ZM40.7988 153.529L42.3037 162.002L48.8501 156.489L40.7988 153.529Z" fill="#D11E1E"/>
<path d="M440.404 12.4398L436.747 10.5318L438.658 6.88099C438.775 6.65342 438.798 6.38896 438.722 6.14451C438.646 5.90006 438.477 5.69516 438.252 5.57392C438.021 5.45603 437.754 5.43246 437.507 5.50821C437.26 5.58397 437.052 5.75309 436.927 5.97957L435.016 9.63035L431.359 7.72232C431.132 7.62261 430.875 7.61283 430.641 7.69495C430.407 7.77706 430.213 7.94494 430.098 8.16458C429.983 8.38422 429.956 8.63919 430.023 8.87788C430.089 9.11656 430.244 9.3211 430.456 9.45008L434.113 11.3581L432.202 15.0089C432.141 15.1223 432.104 15.2465 432.092 15.3744C432.079 15.5023 432.092 15.6313 432.13 15.7541C432.168 15.8769 432.23 15.9911 432.312 16.0901C432.394 16.1891 432.494 16.271 432.608 16.331C432.84 16.4477 433.109 16.469 433.356 16.3904C433.604 16.3118 433.811 16.1394 433.932 15.9103L435.844 12.2595L439.501 14.1676C439.613 14.2276 439.737 14.2647 439.863 14.2768C439.99 14.2889 440.118 14.2757 440.24 14.2379C440.362 14.2002 440.475 14.1387 440.573 14.057C440.671 13.9752 440.751 13.875 440.81 13.7619C440.87 13.6485 440.908 13.5243 440.92 13.3964C440.932 13.2686 440.919 13.1395 440.882 13.0167C440.844 12.8939 440.782 12.7797 440.7 12.6807C440.618 12.5817 440.518 12.4999 440.404 12.4398Z" fill="url(#paint10_linear)"/>
<path d="M360.815 38.5518L357.083 40.2945L355.337 36.5686C355.229 36.3338 355.032 36.1514 354.789 36.0613C354.547 35.9712 354.278 35.9807 354.043 36.0878C353.925 36.1394 353.819 36.2144 353.731 36.3083C353.643 36.4022 353.575 36.5129 353.531 36.6338C353.488 36.7547 353.469 36.8832 353.477 37.0114C353.485 37.1397 353.518 37.2651 353.576 37.3799L355.307 41.1208L351.575 42.8636C351.457 42.9155 351.351 42.9904 351.262 43.0839C351.174 43.1774 351.105 43.2876 351.06 43.4081C351.016 43.5285 350.995 43.6568 351.001 43.7852C351.007 43.9136 351.038 44.0396 351.093 44.1557C351.207 44.3888 351.408 44.5682 351.652 44.6552C351.897 44.7423 352.166 44.7302 352.402 44.6214L356.135 42.8786L357.88 46.6196C357.934 46.7359 358.01 46.8404 358.104 46.927C358.198 47.0135 358.309 47.0805 358.429 47.1239C358.55 47.1672 358.678 47.1862 358.806 47.1795C358.934 47.1729 359.059 47.1409 359.174 47.0853C359.407 46.9746 359.586 46.7769 359.674 46.535C359.761 46.2931 359.749 46.0266 359.641 45.7933L357.91 42.0674L361.643 40.3246C361.878 40.2166 362.061 40.02 362.151 39.7779C362.241 39.5357 362.231 39.2677 362.124 39.0325C362.013 38.7967 361.813 38.614 361.568 38.5241C361.323 38.4341 361.053 38.444 360.815 38.5518Z" fill="url(#paint11_linear)"/>
<path d="M244.778 94.2222L229.222 78.6667L213.667 94.2222L202 82.5555V108.222C202 112.5 205.5 116 209.778 116H264.222C268.5 116 272 112.5 272 108.222V90.3333L260.333 78.6667L244.778 94.2222Z" fill="white" fill-opacity="0.96"/>
<path d="M264.222 46H209.778C205.5 46 202 49.5 202 53.7778V71.6667L213.667 83.3333L229.222 67.7778L244.778 83.3333L260.333 67.7778L272 79.4445V53.7778C272 49.5 268.5 46 264.222 46Z" fill="white" fill-opacity="0.96"/>
</g>
<defs>
<linearGradient id="paint0_linear" x1="398.687" y1="214.526" x2="419.833" y2="204.342" gradientUnits="userSpaceOnUse">
<stop offset="0.01" stop-color="#071D6F"/>
<stop offset="1" stop-color="#061D6F"/>
</linearGradient>
<linearGradient id="paint1_linear" x1="448.019" y1="217.936" x2="419.95" y2="243.78" gradientUnits="userSpaceOnUse">
<stop offset="0.01" stop-color="#D6A8BE"/>
<stop offset="1" stop-color="#2D6FF1"/>
</linearGradient>
<linearGradient id="paint2_linear" x1="-221096" y1="13793.3" x2="-222278" y2="12486.4" gradientUnits="userSpaceOnUse">
<stop offset="0.01" stop-color="#385FD4"/>
<stop offset="1" stop-color="#A446C7"/>
</linearGradient>
<linearGradient id="paint3_linear" x1="374.021" y1="27.3885" x2="213.957" y2="206.802" gradientUnits="userSpaceOnUse">
<stop offset="0.01" stop-color="#7AB0F6"/>
<stop offset="1" stop-color="#145FC1"/>
</linearGradient>
<linearGradient id="paint4_linear" x1="286441" y1="36898.8" x2="264332" y2="64501.1" gradientUnits="userSpaceOnUse">
<stop offset="0.01" stop-color="#83BBFA"/>
<stop offset="1" stop-color="#4973DD"/>
</linearGradient>
<linearGradient id="paint5_linear" x1="49385.7" y1="22643.4" x2="48647" y2="22304.5" gradientUnits="userSpaceOnUse">
<stop offset="0.01" stop-color="#537CE6"/>
<stop offset="1" stop-color="#D7A9BF"/>
</linearGradient>
<linearGradient id="paint6_linear" x1="61215.6" y1="21187.2" x2="62141.1" y2="22309.9" gradientUnits="userSpaceOnUse">
<stop offset="0.01" stop-color="#385FD4"/>
<stop offset="1" stop-color="#2EB3FF"/>
</linearGradient>
<linearGradient id="paint7_linear" x1="33783.2" y1="11856.1" x2="32911.1" y2="10891.5" gradientUnits="userSpaceOnUse">
<stop offset="0.01" stop-color="#D7A9BF"/>
<stop offset="1" stop-color="#848CD8"/>
</linearGradient>
<linearGradient id="paint8_linear" x1="338.219" y1="153.078" x2="435.209" y2="62.3053" gradientUnits="userSpaceOnUse">
<stop offset="0.12" stop-color="#ABDCFF"/>
<stop offset="1" stop-color="#EAEFFF"/>
</linearGradient>
<linearGradient id="paint9_linear" x1="43299.7" y1="5648.38" x2="42555.5" y2="6730.05" gradientUnits="userSpaceOnUse">
<stop offset="0.01" stop-color="#F62A00"/>
<stop offset="1" stop-color="#FD2A00"/>
</linearGradient>
<linearGradient id="paint10_linear" x1="12214.4" y1="2380.24" x2="11879.1" y2="2695.62" gradientUnits="userSpaceOnUse">
<stop offset="0.01" stop-color="#F62A00"/>
<stop offset="1" stop-color="#FD2A00"/>
</linearGradient>
<linearGradient id="paint11_linear" x1="12431.3" y1="2455.87" x2="12089.5" y2="2779.28" gradientUnits="userSpaceOnUse">
<stop offset="0.01" stop-color="#F62A00"/>
<stop offset="1" stop-color="#FD2A00"/>
</linearGradient>
<clipPath id="clip0">
<rect width="511" height="255" fill="white"/>
</clipPath>
</defs>
</svg>
